<svg xmlns="http://www.w3.org/2000/svg" xmlns:svgjs="http://svgjs.com/svgjs" xmlns:xlink="http://www.w3.org/1999/xlink" width="288" height="288"><svg xmlns="http://www.w3.org/2000/svg" width="288" height="288" fill-rule="evenodd" stroke-linejoin="round" stroke-miterlimit="2" clip-rule="evenodd" viewBox="0 0 32 32"><path fill="url(#a)" d="M24,1l-16,0c-1.656,0 -3,1.344 -3,3l0,24c0,1.656 1.344,3 3,3l16,0c1.656,0 3,-1.344 3,-3c0,-0 0,-24 0,-24c0,-1.656 -1.344,-3 -3,-3Zm-1.382,2l-1.724,3.447c-0.169,0.339 -0.515,0.553 -0.894,0.553l-8,0c-0.379,0 -0.725,-0.214 -0.894,-0.553l-1.724,-3.447l-1.382,0c-0.552,0 -1,0.448 -1,1c0,0 0,24 0,24c0,0.552 0.448,1 1,1c0,0 16,0 16,0c0.552,0 1,-0.448 1,-1l0,-24c0,-0.552 -0.448,-1 -1,-1l-1.382,0Zm-13.618,22c0,0.552 0.448,1 1,1l12,-0c0.552,-0 1,-0.448 1,-1c0,-3.863 -3.137,-7 -7,-7c-3.863,0 -7,3.137 -7,7Zm2.1,-1c0.464,-2.281 2.483,-4 4.9,-4c2.417,-0 4.436,1.719 4.9,4l-9.8,0Zm4.9,-15c-2.208,0 -4,1.792 -4,4c0,2.208 1.792,4 4,4c2.208,0 4,-1.792 4,-4c0,-2.208 -1.792,-4 -4,-4Zm0,2c1.104,0 2,0.896 2,2c0,1.104 -0.896,2 -2,2c-1.104,0 -2,-0.896 -2,-2c0,-1.104 0.896,-2 2,-2Zm4.382,-8l-8.764,0l1,2c0,-0 6.764,0 6.764,-0l1,-2Z"/><defs><linearGradient id="a" x1="0" x2="1" y1="0" y2="0" gradientTransform="matrix(22 0 0 30 5 16)" gradientUnits="userSpaceOnUse"><stop class="stopColorfeba66 svgShape" offset="0" stop-color="#9e579d"/><stop class="stopColorfc646e svgShape" offset="1" stop-color="#fc85ae"/></linearGradient></defs></svg></svg>